<svg width="72" height="80" viewBox="0 0 72 80" fill="none" xmlns="http://www.w3.org/2000/svg">
<g clip-path="url(#clip0_406480_4302)">
<path fill-rule="evenodd" clip-rule="evenodd" d="M18.6784 9.29409C18.8399 9.01294 19.1977 8.91645 19.4776 9.07859L53.7072 28.9031C53.9871 29.0652 54.0832 29.4246 53.9218 29.7057C53.7603 29.9869 53.4025 30.0834 53.1226 29.9212L18.893 10.0967C18.6131 9.9346 18.517 9.57525 18.6784 9.29409Z" fill="black"/>
<path fill-rule="evenodd" clip-rule="evenodd" d="M32.1013 1.12491C33.378 0.387964 34.8261 0 36.3001 0C37.7741 0 39.2222 0.387964 40.4989 1.12491C40.4993 1.12515 40.4997 1.12538 40.5001 1.12561L67.8001 16.7288C69.0758 17.4654 70.1354 18.5247 70.8726 19.8003C71.6097 21.0758 71.9986 22.5229 72.0001 23.9962V55.2038C71.9986 56.6771 71.6097 58.1242 70.8726 59.3997C70.1354 60.6753 69.0758 61.7346 67.8001 62.4712L67.7978 62.4726L40.5001 78.0744C40.4999 78.0745 40.4997 78.0746 40.4994 78.0748C39.2226 78.8119 37.7743 79.2 36.3001 79.2C34.8258 79.2 33.3776 78.8119 32.1008 78.0748C32.1005 78.0746 32.1003 78.0745 32.1001 78.0744L4.80241 62.4726L4.8001 62.4712C3.5244 61.7346 2.46481 60.6753 1.72764 59.3997C0.990457 58.1242 0.601609 56.6771 0.600098 55.2038V23.9962C0.601609 22.5229 0.990457 21.0758 1.72764 19.8003C2.46481 18.5247 3.5244 17.4654 4.8001 16.7288L4.80241 16.7274L32.1001 1.12561C32.1005 1.12538 32.1009 1.12515 32.1013 1.12491ZM36.3001 1.20024C35.0362 1.20024 33.7946 1.53299 32.7001 2.16505L32.6978 2.16638L5.4001 17.7682C5.39969 17.7684 5.39929 17.7687 5.39888 17.7689C4.30597 18.4003 3.39819 19.308 2.76656 20.4009C2.13474 21.4942 1.80145 22.7344 1.8001 23.9972V55.2028C1.80145 56.4656 2.13474 57.7058 2.76656 58.7991C3.39816 59.892 4.30587 60.7996 5.3987 61.431C5.39916 61.4313 5.39963 61.4315 5.4001 61.4318L32.7001 77.0349C33.7946 77.667 35.0362 77.9998 36.3001 77.9998C37.564 77.9998 38.8056 77.667 39.9001 77.0349L39.9024 77.0336L67.2001 61.4318C67.2006 61.4315 67.201 61.4313 67.2015 61.431C68.2943 60.7996 69.202 59.892 69.8336 58.7991C70.4655 57.7057 70.7988 56.4654 70.8001 55.2025V23.9975C70.7988 22.7346 70.4655 21.4943 69.8336 20.4009C69.202 19.308 68.2942 18.4003 67.2013 17.7689C67.2009 17.7687 67.2005 17.7684 67.2001 17.7682L39.9024 2.16638L39.9001 2.16505C38.8056 1.53299 37.564 1.20024 36.3001 1.20024Z" fill="black"/>
<path fill-rule="evenodd" clip-rule="evenodd" d="M1.87999 20.0926C2.04377 19.8125 2.40607 19.7168 2.68921 19.8788L36.0003 38.9375L69.3114 19.8788C69.5945 19.7168 69.9568 19.8125 70.1206 20.0926C70.2844 20.3726 70.1876 20.7309 69.9045 20.8929L36.2969 40.1213C36.1134 40.2262 35.8872 40.2262 35.7037 40.1213L2.09609 20.8929C1.81296 20.7309 1.7162 20.3726 1.87999 20.0926Z" fill="black"/>
<path fill-rule="evenodd" clip-rule="evenodd" d="M35.9999 39C36.3313 39 36.5999 39.2626 36.5999 39.5865V78.0135C36.5999 78.3374 36.3313 78.6 35.9999 78.6C35.6685 78.6 35.3999 78.3374 35.3999 78.0135V39.5865C35.3999 39.2626 35.6685 39 35.9999 39Z" fill="black"/>
</g>
<defs>
<clipPath id="clip0_406480_4302">
<rect width="71.4" height="79.2" fill="white" transform="translate(0.600098)"/>
</clipPath>
</defs>
</svg>
