<svg width="82" height="82" viewBox="0 0 82 82" fill="none" xmlns="http://www.w3.org/2000/svg">
<path fill-rule="evenodd" clip-rule="evenodd" d="M41.0065 30.0193C35.3625 30.0193 30.7872 34.5947 30.7872 40.2387C30.7872 45.8827 35.3625 50.4581 41.0065 50.4581C46.6505 50.4581 51.2259 45.8827 51.2259 40.2387C51.2259 34.5947 46.6505 30.0193 41.0065 30.0193ZM29.5098 40.2387C29.5098 33.8892 34.657 28.7419 41.0065 28.7419C47.356 28.7419 52.5033 33.8892 52.5033 40.2387C52.5033 46.5882 47.356 51.7355 41.0065 51.7355C34.657 51.7355 29.5098 46.5882 29.5098 40.2387Z" fill="black"/>
<path fill-rule="evenodd" clip-rule="evenodd" d="M41.3256 1.28078C39.5706 1.28078 37.8875 1.97797 36.6465 3.21896C35.4055 4.45996 34.7083 6.14311 34.7083 7.89815V8.51506L34.7083 8.51761C34.7031 9.81023 34.3201 11.0731 33.6064 12.1508C32.8927 13.2286 31.8794 14.0741 30.6913 14.5833C30.6116 14.6174 30.5257 14.6351 30.439 14.6351H30.2802C29.1021 15.1259 27.8063 15.2665 26.5486 15.0385C25.2455 14.8022 24.0431 14.181 23.0963 13.2549L23.0913 13.25L22.8736 13.0322C22.259 12.417 21.5289 11.9286 20.7256 11.5956C19.9223 11.2626 19.0612 11.0912 18.1915 11.0912C17.3219 11.0912 16.4608 11.2626 15.6575 11.5956C14.8541 11.9286 14.1243 12.4167 13.5097 13.032L13.5092 13.0325C12.894 13.6471 12.4059 14.3769 12.0729 15.1802C11.7399 15.9835 11.5685 16.8446 11.5685 17.7143C11.5685 18.5839 11.7399 19.445 12.0729 20.2483C12.4059 21.0517 12.894 21.7815 13.5092 22.3961L13.7322 22.619C14.6583 23.5658 15.2795 24.7682 15.5158 26.0713C15.7508 27.3678 15.5941 28.7047 15.0659 29.9115C14.6055 31.1517 13.7844 32.2259 12.7082 32.9956C11.6264 33.7694 10.3369 34.1997 9.0073 34.2308L8.99233 34.231H8.66573C6.91069 34.231 5.22754 34.9282 3.98654 36.1692C2.74554 37.4102 2.04836 39.0933 2.04836 40.8484C2.04836 42.6034 2.74554 44.2866 3.98654 45.5276C5.22754 46.7686 6.91069 47.4657 8.66573 47.4657H9.28519C10.5778 47.4709 11.8407 47.8539 12.9184 48.5676C13.9952 49.2807 14.8402 50.2929 15.3495 51.4796C15.8831 52.6904 16.0421 54.0332 15.8061 55.3351C15.5698 56.6382 14.9486 57.8407 14.0225 58.7874L14.0176 58.7924L13.7998 59.0101C13.1845 59.6247 12.6962 60.3548 12.3632 61.1581C12.0302 61.9614 11.8588 62.8225 11.8588 63.6922C11.8588 64.5618 12.0302 65.4229 12.3632 66.2262C12.6962 67.0296 13.1843 67.7594 13.7996 68.374L13.8001 68.3745C14.4146 68.9897 15.1445 69.4778 15.9478 69.8108C16.7511 70.1438 17.6122 70.3153 18.4818 70.3153C19.3515 70.3153 20.2126 70.1438 21.0159 69.8108C21.8192 69.4778 22.5491 68.9897 23.1636 68.3745L23.3866 68.1515C24.3333 67.2254 25.5358 66.6042 26.8389 66.3679C28.1353 66.1329 29.4723 66.2896 30.679 66.8178C31.9192 67.2782 32.9934 68.0993 33.7632 69.1756C34.5369 70.2573 34.9673 71.5468 34.9984 72.8764L34.9986 72.8914V73.218C34.9986 74.973 35.6958 76.6562 36.9368 77.8972C38.1778 79.1382 39.8609 79.8353 41.616 79.8353C43.371 79.8353 45.0541 79.1382 46.2951 77.8972C47.5361 76.6562 48.2333 74.973 48.2333 73.218V72.6011L48.2333 72.5985C48.2385 71.3059 48.6215 70.043 49.3352 68.9653C50.0482 67.8886 51.0603 67.0437 52.2469 66.5343C53.4577 66.0006 54.8006 65.8415 56.1027 66.0776C57.4058 66.3139 58.6082 66.9351 59.555 67.8612L59.56 67.8661L59.7777 68.0839C60.3923 68.6992 61.1224 69.1875 61.9257 69.5205C62.729 69.8535 63.5901 70.0249 64.4597 70.0249C65.3294 70.0249 66.1905 69.8535 66.9938 69.5205C67.7971 69.1875 68.527 68.6994 69.1415 68.0841L69.142 68.0836C69.7573 67.4691 70.2454 66.7393 70.5784 65.9359C70.9114 65.1326 71.0828 64.2715 71.0828 63.4019C71.0828 62.5322 70.9114 61.6711 70.5784 60.8678C70.2454 60.0645 69.7573 59.3346 69.142 58.7201L68.9191 58.4971C67.993 57.5504 67.3718 56.3479 67.1355 55.0448C66.8994 53.7427 67.0585 52.3998 67.5922 51.189C68.1016 50.0024 68.9465 48.9904 70.0232 48.2773C71.1009 47.5636 72.3638 47.1806 73.6564 47.1754L73.659 47.1754L73.9856 47.1754C75.7406 47.1754 77.4237 46.4782 78.6647 45.2372C79.9057 43.9963 80.6029 42.3131 80.6029 40.5581C80.6029 38.803 79.9057 37.1199 78.6647 35.8789C77.4237 34.6379 75.7406 33.9407 73.9856 33.9407H73.3686L73.3661 33.9407C72.0735 33.9355 70.8106 33.5525 69.7329 32.8388C68.6551 32.1251 67.8096 31.1118 67.3004 29.9237C67.2663 29.844 67.2486 29.7582 67.2486 29.6714V29.5126C66.7578 28.3345 66.6172 27.0387 66.8452 25.781C67.0815 24.4779 67.7027 23.2755 68.6288 22.3288L68.6337 22.3237L68.8515 22.106C69.4667 21.4914 69.9551 20.7613 70.2881 19.958C70.6211 19.1547 70.7925 18.2936 70.7925 17.424C70.7925 16.5543 70.6211 15.6932 70.2881 14.8899C69.9551 14.0866 69.467 13.3567 68.8517 12.7422L68.8512 12.7417C68.2366 12.1264 67.5068 11.6383 66.7035 11.3053C65.9002 10.9723 65.0391 10.8009 64.1694 10.8009C63.2998 10.8009 62.4387 10.9723 61.6354 11.3053C60.832 11.6383 60.1022 12.1264 59.4876 12.7417L59.2647 12.9646C58.318 13.8907 57.1155 14.5119 55.8124 14.7482C54.5104 14.9842 53.1677 14.8252 51.9569 14.2916C50.7701 13.7823 49.758 12.9373 49.0449 11.8605C48.3312 10.7828 47.9482 9.51992 47.943 8.2273L47.943 8.22475V7.89815C47.943 6.14311 47.2458 4.45996 46.0048 3.21896C44.7638 1.97797 43.0807 1.28078 41.3256 1.28078ZM35.7408 2.31331C37.222 0.832124 39.2309 0 41.3256 0C43.4204 0 45.4293 0.832124 46.9105 2.31331C48.3917 3.7945 49.2238 5.80343 49.2238 7.89815L49.2238 8.22219C49.2238 8.22259 49.2238 8.22299 49.2238 8.22339C49.2282 9.26581 49.5372 10.2842 50.1128 11.1534C50.6886 12.0228 51.506 12.7049 52.4645 13.1157L52.4709 13.1185C53.4483 13.5498 54.5326 13.6786 55.5839 13.4879C56.6341 13.2975 57.6032 12.7972 58.3666 12.0514C58.3674 12.0506 58.3682 12.0498 58.369 12.049L58.5815 11.8365C58.5816 11.8364 58.5814 11.8366 58.5815 11.8365C59.315 11.1023 60.1862 10.5196 61.1449 10.1222C62.1037 9.72468 63.1315 9.5201 64.1694 9.5201C65.2074 9.5201 66.2351 9.72468 67.194 10.1222C68.1526 10.5195 69.0234 11.1019 69.7569 11.836C70.4912 12.5695 71.0738 13.4406 71.4712 14.3994C71.8687 15.3583 72.0733 16.386 72.0733 17.424C72.0733 18.4619 71.8687 19.4897 71.4712 20.4485C71.0738 21.4073 70.4912 22.2784 69.7569 23.0119L69.5444 23.2244C69.5435 23.2252 69.5427 23.226 69.5419 23.2269C68.7962 23.9903 68.2959 24.9594 68.1054 26.0095C67.9148 27.0608 68.0435 28.1451 68.4749 29.1225C68.5109 29.204 68.5294 29.2921 68.5294 29.3811V29.5361C68.9446 30.4442 69.6062 31.2187 70.44 31.771C71.3092 32.3465 72.3276 32.6555 73.37 32.6599H73.9856C76.0803 32.6599 78.0892 33.492 79.5704 34.9732C81.0516 36.4544 81.8837 38.4633 81.8837 40.5581C81.8837 42.6528 81.0516 44.6617 79.5704 46.1429C78.0892 47.6241 76.0803 48.4562 73.9856 48.4562L73.6615 48.4562C73.6611 48.4562 73.6607 48.4562 73.6603 48.4562C72.6179 48.4606 71.5995 48.7696 70.7304 49.3452C69.8609 49.921 69.1788 50.7385 68.768 51.697L68.7653 51.7033C68.3339 52.6807 68.2051 53.765 68.3958 54.8163C68.5862 55.8664 69.0864 56.8355 69.8321 57.5988C69.833 57.5997 69.8338 57.6006 69.8347 57.6015L70.0472 57.8139C70.0473 57.814 70.0471 57.8138 70.0472 57.8139C70.7814 58.5474 71.3641 59.4186 71.7616 60.3773C72.159 61.3362 72.3636 62.3639 72.3636 63.4019C72.3636 64.4398 72.159 65.4676 71.7616 66.4264C71.3641 67.3851 70.7817 68.2561 70.0474 68.9895C69.314 69.7238 68.443 70.3062 67.4843 70.7037C66.5254 71.1011 65.4977 71.3057 64.4597 71.3057C63.4218 71.3057 62.394 71.1011 61.4352 70.7037C60.4765 70.3062 59.6055 69.7238 58.8721 68.9895C58.872 68.9895 58.8721 68.9896 58.8721 68.9895L58.6593 68.7768C58.6585 68.7759 58.6576 68.7751 58.6567 68.7742C57.8934 68.0285 56.9243 67.5283 55.8742 67.3379C54.8229 67.1472 53.7386 67.2759 52.7612 67.7073L52.7549 67.7101C51.7964 68.1209 50.9789 68.803 50.4031 69.6725C49.8275 70.5416 49.5185 71.56 49.5141 72.6024C49.5141 72.6028 49.5141 72.6032 49.5141 72.6036L49.5141 73.218C49.5141 75.3127 48.682 77.3216 47.2008 78.8028C45.7196 80.284 43.7107 81.1161 41.616 81.1161C39.5212 81.1161 37.5123 80.284 36.0311 78.8028C34.5499 77.3216 33.7178 75.3127 33.7178 73.218V72.8991C33.6913 71.829 33.3443 70.7914 32.7215 69.9206C32.0973 69.0479 31.225 68.3832 30.218 68.0128C30.2111 68.0103 30.2044 68.0077 30.1977 68.0049C30.1919 68.0026 30.1861 68.0002 30.1804 67.9976C29.203 67.5662 28.1187 67.4376 27.0674 67.6282C26.0173 67.8186 25.0481 68.3189 24.2847 69.0646C24.2839 69.0655 24.2831 69.0663 24.2822 69.0671L24.0698 69.2796C23.3363 70.014 22.4652 70.5965 21.5064 70.994C20.5475 71.3914 19.5198 71.596 18.4818 71.596C17.4439 71.596 16.4161 71.3914 15.4573 70.994C14.4985 70.5965 13.6274 70.014 12.8939 69.2796C12.1598 68.5462 11.5774 67.6753 11.18 66.7167C10.7826 65.7579 10.578 64.7301 10.578 63.6922C10.578 62.6542 10.7826 61.6265 11.18 60.6676C11.5775 59.7089 12.1599 58.838 12.8942 58.1045C12.8942 58.1044 12.8941 58.1046 12.8942 58.1045L13.1069 57.8918C13.1077 57.891 13.1085 57.8901 13.1093 57.8893C13.8551 57.1259 14.3554 56.1568 14.5458 55.1066C14.7365 54.0553 14.6078 52.971 14.1764 51.9936L14.1736 51.9873C13.7628 51.0288 13.0807 50.2113 12.2112 49.6355C11.3421 49.0599 10.3237 48.7509 9.28128 48.7465C9.28088 48.7465 9.28048 48.7465 9.28008 48.7465L8.66573 48.7465C6.57101 48.7465 4.56208 47.9144 3.08089 46.4332C1.5997 44.952 0.767578 42.9431 0.767578 40.8484C0.767578 38.7537 1.5997 36.7447 3.08089 35.2635C4.56208 33.7824 6.57101 32.9502 8.66573 32.9502H8.98466C10.0547 32.9237 11.0923 32.5767 11.9631 31.9539C12.8358 31.3297 13.5005 30.4574 13.8709 29.4504C13.8756 29.4377 13.8806 29.4252 13.8861 29.4129C14.3175 28.4354 14.4461 27.3511 14.2555 26.2998C14.0651 25.2497 13.5648 24.2805 12.819 23.5171L12.6041 23.3022C11.8698 22.5687 11.2872 21.6976 10.8897 20.7388C10.4923 19.78 10.2877 18.7522 10.2877 17.7143C10.2877 16.6763 10.4923 15.6486 10.8897 14.6897C11.2872 13.7309 11.8698 12.8599 12.6041 12.1263C13.3375 11.3922 14.2084 10.8098 15.167 10.4125C16.1258 10.015 17.1536 9.81041 18.1915 9.81041C19.2295 9.81041 20.2572 10.015 21.2161 10.4125C22.1748 10.8099 23.0458 11.3924 23.7792 12.1266C23.7793 12.1267 23.7791 12.1265 23.7792 12.1266L23.9944 12.3418C24.7578 13.0876 25.7269 13.5878 26.7771 13.7783C27.8284 13.9689 28.9127 13.8402 29.8901 13.4088C29.9716 13.3728 30.0597 13.3543 30.1487 13.3543H30.3037C31.2117 12.9391 31.9863 12.2776 32.5385 11.4437C33.1141 10.5745 33.4231 9.55612 33.4275 8.5137V7.89815C33.4275 5.80343 34.2596 3.7945 35.7408 2.31331Z" fill="black"/>
</svg>
